<svg width="113" height="19" viewBox="0 0 113 19" fill="none" xmlns="http://www.w3.org/2000/svg">
<path d="M5.90625 14.8359H14.0625V18H0.773438V15.832L8.90625 4.11328H0.726562V0.9375H13.9805V3.04688L5.90625 14.8359ZM14.2889 11.543C14.2889 10.2773 14.535 9.15234 15.0272 8.16797C15.5194 7.17578 16.2264 6.41406 17.1483 5.88281C18.0701 5.35156 19.1522 5.08594 20.3944 5.08594C22.2928 5.08594 23.7889 5.67578 24.8826 6.85547C25.9764 8.02734 26.5233 9.625 26.5233 11.6484V11.7891C26.5233 13.7656 25.9725 15.3359 24.8709 16.5C23.7772 17.6562 22.2928 18.2344 20.4178 18.2344C18.6131 18.2344 17.1639 17.6953 16.0701 16.6172C14.9764 15.5312 14.3865 14.0625 14.3006 12.2109L14.2889 11.543ZM18.2381 11.7891C18.2381 12.9609 18.4217 13.8203 18.7889 14.3672C19.1561 14.9141 19.699 15.1875 20.4178 15.1875C21.824 15.1875 22.5428 14.1055 22.574 11.9414V11.543C22.574 9.26953 21.8475 8.13281 20.3944 8.13281C19.074 8.13281 18.3592 9.11328 18.2498 11.0742L18.2381 11.7891ZM31.1793 5.32031L31.3082 6.80859C32.1832 5.66016 33.3903 5.08594 34.9293 5.08594C36.2497 5.08594 37.234 5.48047 37.8825 6.26953C38.5387 7.05859 38.8786 8.24609 38.902 9.83203V18H34.9411V9.99609C34.9411 9.35547 34.8122 8.88672 34.5543 8.58984C34.2965 8.28516 33.8278 8.13281 33.1481 8.13281C32.3747 8.13281 31.8004 8.4375 31.4254 9.04688V18H27.4762V5.32031H31.1793ZM46.5229 18.2344C44.5776 18.2344 43.0034 17.6562 41.8003 16.5C40.5971 15.3359 39.9956 13.8242 39.9956 11.9648V11.6367C39.9956 10.3398 40.2339 9.19531 40.7104 8.20312C41.1948 7.21094 41.8979 6.44531 42.8198 5.90625C43.7417 5.35938 44.8354 5.08594 46.101 5.08594C47.8823 5.08594 49.2885 5.64062 50.3198 6.75C51.351 7.85156 51.8667 9.39062 51.8667 11.3672V12.9023H44.0151C44.1557 13.6133 44.4643 14.1719 44.9409 14.5781C45.4174 14.9844 46.0346 15.1875 46.7924 15.1875C48.0424 15.1875 49.019 14.75 49.7221 13.875L51.5268 16.0078C51.0346 16.6875 50.3354 17.2305 49.4292 17.6367C48.5307 18.0352 47.562 18.2344 46.5229 18.2344ZM46.0776 8.13281C44.9214 8.13281 44.2339 8.89844 44.0151 10.4297H47.9995V10.125C48.0151 9.49219 47.8549 9.00391 47.519 8.66016C47.1831 8.30859 46.7026 8.13281 46.0776 8.13281Z" fill="#3CC8AE"/>
<path d="M59.3938 14.4375C59.3938 14.1016 59.2181 13.832 58.8665 13.6289C58.5149 13.4258 57.847 13.2148 56.8626 12.9961C55.8782 12.7773 55.0657 12.4922 54.4251 12.1406C53.7845 11.7812 53.2962 11.3477 52.9602 10.8398C52.6243 10.332 52.4563 9.75 52.4563 9.09375C52.4563 7.92969 52.9368 6.97266 53.8977 6.22266C54.8587 5.46484 56.1165 5.08594 57.6712 5.08594C59.3431 5.08594 60.6868 5.46484 61.7024 6.22266C62.7181 6.98047 63.2259 7.97656 63.2259 9.21094H59.2649C59.2649 8.19531 58.7298 7.6875 57.6595 7.6875C57.2454 7.6875 56.8977 7.80469 56.6165 8.03906C56.3352 8.26562 56.1946 8.55078 56.1946 8.89453C56.1946 9.24609 56.3665 9.53125 56.7102 9.75C57.054 9.96875 57.6009 10.1484 58.3509 10.2891C59.1087 10.4297 59.7727 10.5977 60.3431 10.793C62.2493 11.4492 63.2024 12.625 63.2024 14.3203C63.2024 15.4766 62.6868 16.418 61.6556 17.1445C60.6321 17.8711 59.304 18.2344 57.6712 18.2344C56.5852 18.2344 55.6165 18.0391 54.7649 17.6484C53.9134 17.2578 53.2493 16.7266 52.7727 16.0547C52.2962 15.3828 52.0579 14.6758 52.0579 13.9336H55.7493C55.7649 14.5195 55.9602 14.9492 56.3352 15.2227C56.7102 15.4883 57.1907 15.6211 57.7766 15.6211C58.3157 15.6211 58.7181 15.5117 58.9837 15.293C59.2571 15.0742 59.3938 14.7891 59.3938 14.4375ZM68.0812 5.32031L68.2101 6.80859C69.1085 5.66016 70.3155 5.08594 71.8312 5.08594C73.4327 5.08594 74.5148 5.72266 75.0773 6.99609C75.9366 5.72266 77.1788 5.08594 78.8038 5.08594C81.3741 5.08594 82.6944 6.64062 82.7648 9.75V18H78.8038V9.99609C78.8038 9.34766 78.6944 8.875 78.4757 8.57812C78.2569 8.28125 77.8585 8.13281 77.2804 8.13281C76.4991 8.13281 75.9171 8.48047 75.5343 9.17578L75.546 9.33984V18H71.5851V10.0195C71.5851 9.35547 71.4796 8.875 71.2687 8.57812C71.0577 8.28125 70.6554 8.13281 70.0616 8.13281C69.3038 8.13281 68.7257 8.48047 68.3273 9.17578V18H64.378V5.32031H68.0812ZM91.4521 18C91.3115 17.7422 91.1865 17.3633 91.0771 16.8633C90.3505 17.7773 89.3349 18.2344 88.0302 18.2344C86.8349 18.2344 85.8193 17.875 84.9833 17.1562C84.1474 16.4297 83.7294 15.5195 83.7294 14.4258C83.7294 13.0508 84.2372 12.0117 85.2529 11.3086C86.2685 10.6055 87.745 10.2539 89.6825 10.2539H90.9013V9.58594C90.9013 8.42188 90.3974 7.83984 89.3896 7.83984C88.4521 7.83984 87.9833 8.30078 87.9833 9.22266H84.0341C84.0341 7.99609 84.5536 7 85.5927 6.23438C86.6396 5.46875 87.9716 5.08594 89.5888 5.08594C91.206 5.08594 92.4833 5.48047 93.4208 6.26953C94.3583 7.05859 94.8388 8.14062 94.8622 9.51562V15.1289C94.8779 16.293 95.0575 17.1836 95.4013 17.8008V18H91.4521ZM88.9794 15.4219C89.4716 15.4219 89.8779 15.3164 90.1982 15.1055C90.5263 14.8945 90.7607 14.6562 90.9013 14.3906V12.3633H89.7529C88.3779 12.3633 87.6904 12.9805 87.6904 14.2148C87.6904 14.5742 87.8115 14.8672 88.0536 15.0938C88.2958 15.3125 88.6044 15.4219 88.9794 15.4219ZM104.018 8.89453L102.718 8.80078C101.475 8.80078 100.678 9.19141 100.327 9.97266V18H96.3777V5.32031H100.081L100.21 6.94922C100.874 5.70703 101.8 5.08594 102.987 5.08594C103.409 5.08594 103.776 5.13281 104.089 5.22656L104.018 8.89453ZM109.917 2.16797V5.32031H112.003V8.0625H109.917V13.8633C109.917 14.3398 110.003 14.6719 110.174 14.8594C110.346 15.0469 110.686 15.1406 111.194 15.1406C111.585 15.1406 111.913 15.1172 112.178 15.0703V17.8945C111.467 18.1211 110.725 18.2344 109.952 18.2344C108.592 18.2344 107.588 17.9141 106.94 17.2734C106.292 16.6328 105.967 15.6602 105.967 14.3555V8.0625H104.35V5.32031H105.967V2.16797H109.917Z" fill="black"/>
</svg>
